# xmcd
# 
# Track frame offsets:
#   150
#   14685
#   28327
#   45279
#   64157
# 
# Disc length: 1090 seconds
# 
# Revision: 0
# Processed by: cddbd v1.5.2PL0 Copyright (c) Steve Scherf et al.
# Submitted via: Synapstar 1.0 
# 
DISCID=3d044005
DTITLE=Various Artist - new karaoke 11-28-08
DYEAR=1900
DGENRE=Country
TTITLE0=Darius Rucker - Don't Think I Don't Think About It
TTITLE1=George Strait - Troubadour
TTITLE2=Zac Brown Band - Chicken Fried
TTITLE3=Kevin Fowler - Best Mistake I Ever Made
TTITLE4=Eli Young Band - Always the Love Songs
EXTD=MediaType: Karaoke CD+G Producer: Unknown
EXTT0=
EXTT1=
EXTT2=
EXTT3=
EXTT4=
PLAYORDER=
